<svg xmlns="http://www.w3.org/2000/svg" xmlns:xlink="http://www.w3.org/1999/xlink" version="1.1" id="Calque_1" x="0px" y="0px" width="100px" height="100px" viewBox="0 0 100 100" enable-background="new 0 0 100 100" xml:space="preserve">
<g>
	<path d="M35.859,58.497h-5.13c-1.652,0-3.003,1.373-3.003,3.053v35.397c0,1.68,1.352,3.053,3.003,3.053h5.13   c1.652,0,3.003-1.373,3.003-3.053V61.55C38.862,59.87,37.511,58.497,35.859,58.497z M36.86,96.947c0,0.552-0.458,1.018-1.001,1.018   h-5.13c-0.542,0-1.001-0.466-1.001-1.018V61.55c0-0.552,0.458-1.018,1.001-1.018h5.13c0.542,0,1.001,0.466,1.001,1.018V96.947z"/>
	<path d="M69.27,58.497h-5.129c-1.652,0-3.004,1.373-3.004,3.053v35.397c0,1.68,1.352,3.053,3.004,3.053h5.129   c1.652,0,3.004-1.373,3.004-3.053V61.55C72.273,59.87,70.922,58.497,69.27,58.497z M70.271,96.947c0,0.552-0.457,1.018-1.002,1.018   h-5.129c-0.543,0-1.002-0.466-1.002-1.018V61.55c0-0.552,0.459-1.018,1.002-1.018h5.129c0.545,0,1.002,0.466,1.002,1.018V96.947z"/>
	<path d="M100,36.71l-1.883-0.696L94.309,46.65l-2.398-0.888v-0.71v-3.689C91.91,18.169,73.502,0,50,0   C26.499,0,8.089,18.169,8.089,41.363v3.689v0.71L5.691,46.65L1.882,36.015L0,36.71l3.809,10.636l-0.803,0.297l4.444,12.41   l0.804-0.299l1.905,5.318l3.646,5.829v21.552l5.568,1.886l3.713,3.774h3.712v-37.73h-3.712l-1.913,1.943   c-4.108-0.214-7.514-2.063-8.113-4.35l1.367-0.506l-3.737-10.435c3.069-0.254,5.033-2.408,5.033-5.674   C15.722,22.519,30.778,7.757,50,7.757s34.278,14.762,34.278,33.606c0,3.212,2.006,5.409,5.031,5.673l-3.736,10.436l1.367,0.506   c-0.6,2.286-4.004,4.136-8.113,4.35l-1.912-1.943h-3.711v37.73h3.711l3.176-3.228v2.356h4.787v-4.342l1.318-0.447V70.931   l3.551-5.657l1.994-5.521l0.809,0.301l4.445-12.41l-0.803-0.297L100,36.71z M23.915,62.419h0.88v33.66h-0.88l-3.127-3.178   l-0.334-0.34l-0.449-0.152l-4.199-1.422V74.103l3.65,5.836l1.688-1.096l-5.339-8.508V67.51l4.199-1.423l0.448-0.152l0.334-0.339   L23.915,62.419z M19.311,64.177l-5.506,1.866v1.102l-1.802-2.872l-1.867-5.213l1.03-0.381   C11.986,61.413,15.155,63.533,19.311,64.177z M8.646,57.444L5.573,48.86l3.213-1.189l3.075,8.584L8.646,57.444z M86.281,41.363   C86.281,21.001,70.037,5.722,50,5.722c-20.037,0-36.28,15.279-36.28,35.642c0,2.657-1.656,3.689-3.628,3.689v-3.689   C10.092,18.964,27.959,2.035,50,2.035c22.042,0,39.909,16.929,39.909,39.328v3.689C88.045,45.053,86.281,44.021,86.281,41.363z    M82.875,95.208h-0.783v-1.364l0.783-0.265V95.208z M84.193,90.987l-4.199,1.422l-0.449,0.152l-0.334,0.34l-3.127,3.178h-0.879   v-33.66h0.879l3.127,3.177l0.334,0.339l0.449,0.152l4.199,1.423v2.825l-5.34,8.508l1.689,1.096l3.65-5.817V90.987z M87.998,64.272   l-1.803,2.872v-1.102l-5.506-1.866c4.154-0.644,7.324-2.764,8.145-5.498l1.031,0.381L87.998,64.272z M91.354,57.444l-3.215-1.189   l3.074-8.584l3.215,1.189L91.354,57.444z"/>
</g>
</svg>