<?xml version="1.0" encoding="utf-8"?>
<!-- Generator: Adobe Illustrator 19.0.0, SVG Export Plug-In . SVG Version: 6.00 Build 0)  -->
<svg version="1.1" id="Layer_1" xmlns="http://www.w3.org/2000/svg" xmlns:xlink="http://www.w3.org/1999/xlink" x="0px" y="0px"
	 width="1024px" height="1024px" viewBox="206 -116 1024 1024" style="enable-background:new 206 -116 1024 1024;"
	 xml:space="preserve">
<style type="text/css">
	.st0{fill:url(#SVGID_1_);}
	.st1{fill:#BF741F;}
</style>
<g>
	<g>
		
			<linearGradient id="SVGID_1_" gradientUnits="userSpaceOnUse" x1="718" y1="-32" x2="718" y2="824" gradientTransform="matrix(1 0 0 -1 0 792)">
			<stop  offset="0" style="stop-color:#FFB815"/>
			<stop  offset="1" style="stop-color:#ED8000"/>
		</linearGradient>
		<path class="st0" d="M470.7,824L223.3,396L470.7-32h494.7l247.3,428L965.3,824H470.7z M862.6,354.9c-33.1,0-60,26.9-60,60v192.6
			c0,33.1,26.9,60,60,60l19.3-0.1c23.1,0,43.8-15.6,59-41.7h60.2V408c-0.2-75.8-29.8-147-83.3-200.4c-53.5-53.5-124.8-83-200.5-83
			c-75.8,0-147,29.5-200.6,83c-53.6,53.5-83.3,124.7-83.5,200.4v217.5h60.2c15.6,26.9,36.5,41.7,59.1,41.7h19.2
			c33.1,0,60-26.9,60-60V414.7c0-33.1-26.9-60-60-60h-19.2c-20.6,0-39.7,12.2-54.8,34.8c1.5-18,5.2-35.5,10.9-52.4
			c6.1,1.7,12.4,2.5,18.8,2.5c22.7,0,44.1-10.8,57.5-28.8c9.7-13.3,21.5-25,35-34.9c13.3-9.7,22.3-23.4,26.5-38.5
			c10.5,6,22.6,9.4,35.1,9.4c3.6,0,7.3-0.3,10.9-0.9c8.1-1.3,16.4-1.9,24.7-1.9c0,0,0,0,0,0c8.3,0,16.5,0.6,24.6,1.9
			c3.6,0.6,7.2,0.8,10.8,0.8c12.6,0,24.7-3.4,35.3-9.4c4.1,15.2,13.2,29,26.6,38.6c13.4,9.8,25.2,21.5,34.9,34.8
			c13.3,18.1,34.8,28.9,57.4,28.9c6.5,0,12.8-0.9,19-2.5c5.9,17.1,9.6,34.8,11.1,52.7c-14.7-21.9-33.7-34.9-54.7-34.9H862.6z"/>
		<path class="st1" d="M956.7-17l238.7,413L956.7,809H479.3L240.6,396L479.3-17H956.7 M418.1,640.5h30h33.7h3.1
			c6.5,9.8,13.9,18.1,21.9,24.6c13.8,11.2,29.5,17.1,45.6,17.1h19.2c20.1,0,38.9-7.8,53.1-21.9c14.2-14.2,21.9-33,21.9-53.1V414.7
			c0-20.1-7.8-38.9-21.9-53.1c-13.2-13.2-30.4-20.8-48.9-21.8c8-5.4,15.2-12.2,21-20.1l0.1-0.1l0.1-0.1c8.7-12,19.4-22.6,31.7-31.6
			c11.2-8.2,20-18.8,25.9-30.6c8.6,2.9,17.7,4.4,26.8,4.4c4.4,0,8.8-0.3,13.2-1c7.4-1.2,14.9-1.7,22.4-1.7c7.5,0,15,0.6,22.3,1.7
			l0,0l0,0c4.3,0.7,8.7,1,13,1c9.3,0,18.4-1.5,27-4.4c6,11.9,14.8,22.5,26.1,30.7c12.2,8.8,22.8,19.4,31.6,31.5l0.1,0.1l0.1,0.1
			c5.8,7.9,13.1,14.8,21.3,20.3c-18.4,1-35.6,8.7-48.8,21.8c-14.2,14.2-21.9,33-21.9,53.1v192.6c0,20.1,7.8,38.9,21.9,53.1
			c14.2,14.2,33,21.9,53.1,21.9h0.1l0.1,0l19.1-0.1c16.2,0,32.1-6.1,45.9-17.5c7.8-6.5,15-14.6,21.4-24.2h3.1H986h30v-30V408v0l0,0
			c-0.1-40.3-8.1-79.4-23.7-116.1c-15.1-35.5-36.6-67.4-64-94.8c-27.4-27.4-59.3-48.9-94.9-63.9c-36.8-15.6-75.9-23.4-116.2-23.4
			c-40.3,0-79.4,7.9-116.3,23.4c-35.6,15-67.5,36.5-95,63.9c-27.4,27.4-49,59.3-64.1,94.8c-15.6,36.8-23.6,75.9-23.7,116.2l0,0v0
			v202.5V640.5 M974-47H462L206,396l256,443h512l256-443L974-47L974-47z M448.1,610.5V408c0.4-148.3,120.7-268.4,269.1-268.4
			S985.6,259.7,986,408v202.7h-33.7v-94.1c-1.4,75.4-32.4,135.8-70.5,135.8l-19.2,0.1c-24.9,0-45-20.1-45-45V414.9
			c0-24.9,20.1-45,45-45h19.2c38.1,0.1,69.1,60.3,70.5,135.8V408c0-31.3-6.2-61.6-18.2-90.2l-5.6,2.4c-7.2,3-14.7,4.4-22,4.4
			c-17.5,0-34.4-8-45.3-22.7c-10.7-14.7-23.6-27.5-38.2-38.1c-20.7-15-28.2-42.4-19-66.1c-9.1,20.7-29.5,34-51.7,34
			c-2.8,0-5.6-0.2-8.4-0.6c-8.9-1.4-17.9-2.1-27-2.1s-18.1,0.7-27,2.1c-2.9,0.4-5.7,0.7-8.5,0.7c-22.3,0-42.7-13.6-51.7-34.6
			c9.5,23.9,2,51.4-18.8,66.6c-14.6,10.7-27.6,23.6-38.2,38.1c-10.8,14.6-27.9,22.7-45.4,22.7c-7.4,0-14.8-1.4-21.9-4.4l-5.6-2.4
			c-11.9,28.5-17.9,58.7-18,90v95.3c2-74.3,32.9-133.4,70.6-133.4h19.2c24.9,0,45,20.1,45,45v192.5c0,24.9-20.1,45-45,45h-19.2
			c-37.8,0-68.5-59-70.6-133.3v91.6H448.1L448.1,610.5z M933.2,315.5c0.1,0.2,0.1,0.4,0.2,0.5C933.3,315.9,933.3,315.7,933.2,315.5
			L933.2,315.5z M933.4,316c0.1,0.3,0.3,0.6,0.4,1c0.1,0.3,0.2,0.5,0.3,0.8l0.1,0C934,317.3,933.7,316.7,933.4,316L933.4,316z"/>
	</g>
</g>
</svg>
