<?xml version="1.0" encoding="UTF-8" standalone="no"?>
<!-- Generator: Adobe Illustrator 19.0.0, SVG Export Plug-In . SVG Version: 6.00 Build 0)  -->

<svg
   xmlns:dc="http://purl.org/dc/elements/1.1/"
   xmlns:cc="http://creativecommons.org/ns#"
   xmlns:rdf="http://www.w3.org/1999/02/22-rdf-syntax-ns#"
   xmlns:svg="http://www.w3.org/2000/svg"
   xmlns="http://www.w3.org/2000/svg"
   xmlns:sodipodi="http://sodipodi.sourceforge.net/DTD/sodipodi-0.dtd"
   xmlns:inkscape="http://www.inkscape.org/namespaces/inkscape"
   version="1.1"
   id="Layer_1"
   x="0px"
   y="0px"
   width="1024px"
   height="1024px"
   viewBox="206 -116 1024 1024"
   style="enable-background:new 206 -116 1024 1024;"
   xml:space="preserve"
   inkscape:version="0.48.4 r9939"
   sodipodi:docname="icon-playing.svg"><metadata
     id="metadata3189"><rdf:RDF><cc:Work
         rdf:about=""><dc:format>image/svg+xml</dc:format><dc:type
           rdf:resource="http://purl.org/dc/dcmitype/StillImage" /></cc:Work></rdf:RDF></metadata><defs
     id="defs3187" /><sodipodi:namedview
     pagecolor="#ffffff"
     bordercolor="#666666"
     borderopacity="1"
     objecttolerance="10"
     gridtolerance="10"
     guidetolerance="10"
     inkscape:pageopacity="0"
     inkscape:pageshadow="2"
     inkscape:window-width="1920"
     inkscape:window-height="1028"
     id="namedview3185"
     showgrid="false"
     showguides="true"
     inkscape:guide-bbox="true"
     inkscape:zoom="0.921875"
     inkscape:cx="662.81484"
     inkscape:cy="493.29349"
     inkscape:window-x="0"
     inkscape:window-y="0"
     inkscape:window-maximized="1"
     inkscape:current-layer="XMLID_9_" /><style
     type="text/css"
     id="style3173">
	.st0{fill:url(#SVGID_1_);}
	.st1{fill:#BF741F;}
</style><g
     id="XMLID_9_"><linearGradient
       id="SVGID_1_"
       gradientUnits="userSpaceOnUse"
       x1="718"
       y1="-32"
       x2="718"
       y2="824"
       gradientTransform="matrix(1 0 0 -1 0 792)"><stop
         offset="0"
         style="stop-color:#FFB815"
         id="stop3177" /><stop
         offset="1"
         style="stop-color:#ED8000"
         id="stop3179" /></linearGradient><path
       class="st0"
       d="M 470.7,824 223.3,396 470.7,-32 l 494.7,0 247.3,428 -247.4,428 z"
       id="path3181"
       inkscape:connector-curvature="0"
       style="fill:url(#SVGID_1_)"
       sodipodi:nodetypes="ccccccc" /><path
       id="path4024"
       d="m 601.2,168.3 c -21.6,0 -39.2,17.6 -39.2,39.3 l 0,375.8 c 0,21.7 17.6,39.3 39.2,39.3 7.3,0 14.4,-2.1 20.7,-6 57.5,-35.9 112.1,-70 164.9,-103 46.7,-29.2 93.4,-58.4 142.2,-88.9 11.7,-7.3 18.7,-19.9 18.5,-33.8 -0.1,-13.8 -7.3,-26.2 -19.1,-33.2 -51,-30.5 -98.9,-59.2 -145.9,-87.4 -54.8,-32.8 -106.6,-63.9 -161.2,-96.5 -6.1,-3.7 -13.1,-5.6 -20.1,-5.6 z"
       class="st0"
       inkscape:connector-curvature="0"
       style="fill:#ffffff;fill-opacity:1"
       sodipodi:nodetypes="sssscccccccs" /><path
       class="st1"
       d="m 601.2,637.7 c 10.1,0 20,-2.9 28.7,-8.3 57.4,-35.8 111.9,-69.9 164.7,-102.9 46,-28.7 93.5,-58.5 142.4,-89 16.2,-10.1 25.8,-27.6 25.6,-46.7 -0.2,-19 -10.1,-36.2 -26.4,-45.9 C 885.2,314.4 837,285.5 790.3,257.6 735.4,224.7 683.6,193.7 629,161 c -8.5,-5.1 -18.1,-7.8 -27.9,-7.8 -14.1,0 -27.4,5.4 -37.6,15.2 -10.7,10.3 -16.5,24.2 -16.5,39.1 l 0,375.8 c 0,15 5.9,28.9 16.6,39.1 10.2,9.9 23.5,15.3 37.6,15.3 m 0,-30 c -12.6,0 -24.2,-10.1 -24.2,-24.3 l 0,-375.8 c 0,-14.2 11.5,-24.3 24.2,-24.3 4.2,0 8.4,1.1 12.4,3.5 102.2,61.1 197.7,118.4 307.2,183.9 15.6,9.3 15.7,31.8 0.3,41.4 C 816.2,477.6 721.5,536.9 614,604 c -4.1,2.6 -8.5,3.7 -12.8,3.7 z"
       id="path3183"
       style="fill:#bf741f;fill-rule:nonzero;stroke:none"
       inkscape:connector-curvature="0"
       sodipodi:nodetypes="ccccccccscsscccssscccccc" /><path
       style="fill:#bf741f;fill-rule:nonzero;stroke:none"
       id="path4022"
       d="M 956.7,-17 1195.4,396 956.7,809 479.3,809 240.6,396 479.3,-17 956.7,-17 M 974,-47 462,-47 206,396 462,839 974,839 1230,396 974,-47 z"
       class="st1"
       inkscape:connector-curvature="0"
       sodipodi:nodetypes="ccccccccccccccc" /></g></svg>
