<?xml version="1.0" encoding="UTF-8" standalone="no"?>
<!-- Generator: Adobe Illustrator 19.0.0, SVG Export Plug-In . SVG Version: 6.00 Build 0)  -->

<svg
   xmlns:dc="http://purl.org/dc/elements/1.1/"
   xmlns:cc="http://creativecommons.org/ns#"
   xmlns:rdf="http://www.w3.org/1999/02/22-rdf-syntax-ns#"
   xmlns:svg="http://www.w3.org/2000/svg"
   xmlns="http://www.w3.org/2000/svg"
   xmlns:sodipodi="http://sodipodi.sourceforge.net/DTD/sodipodi-0.dtd"
   xmlns:inkscape="http://www.inkscape.org/namespaces/inkscape"
   version="1.1"
   id="Layer_1"
   x="0px"
   y="0px"
   width="1024px"
   height="1024px"
   viewBox="206 -116 1024 1024"
   style="enable-background:new 206 -116 1024 1024;"
   xml:space="preserve"
   inkscape:version="0.48.4 r9939"
   sodipodi:docname="icon.svg"><metadata
     id="metadata3005"><rdf:RDF><cc:Work
         rdf:about=""><dc:format>image/svg+xml</dc:format><dc:type
           rdf:resource="http://purl.org/dc/dcmitype/StillImage" /></cc:Work></rdf:RDF></metadata><defs
     id="defs3003" /><sodipodi:namedview
     pagecolor="#ffffff"
     bordercolor="#666666"
     borderopacity="1"
     objecttolerance="10"
     gridtolerance="10"
     guidetolerance="10"
     inkscape:pageopacity="0"
     inkscape:pageshadow="2"
     inkscape:window-width="1920"
     inkscape:window-height="1028"
     id="namedview3001"
     showgrid="false"
     inkscape:zoom="0.82324219"
     inkscape:cx="512"
     inkscape:cy="512"
     inkscape:window-x="0"
     inkscape:window-y="0"
     inkscape:window-maximized="1"
     inkscape:current-layer="g2988" /><style
     type="text/css"
     id="style2986">
	.st0{fill:url(#SVGID_1_);}
	.st1{fill:#BF741F;}
</style><g
     id="g2988"><g
       id="g2990"><linearGradient
         id="SVGID_1_"
         gradientUnits="userSpaceOnUse"
         x1="718"
         y1="-32"
         x2="718"
         y2="824"
         gradientTransform="matrix(1 0 0 -1 0 792)"><stop
           offset="0"
           style="stop-color:#FFB815"
           id="stop2993" /><stop
           offset="1"
           style="stop-color:#ED8000"
           id="stop2995" /></linearGradient><path
         class="st0"
         d="M 470.7,824 223.3,396 470.7,-32 l 494.7,0 247.3,428 -247.4,428 z"
         id="path2997"
         inkscape:connector-curvature="0"
         style="fill:url(#SVGID_1_)"
         sodipodi:nodetypes="ccccccc" /><path
         id="path3009"
         d="m 862.6,354.9 c -33.1,0 -60,26.9 -60,60 l 0,192.6 c 0,33.1 26.9,60 60,60 l 19.3,-0.1 c 23.1,0 43.8,-15.6 59,-41.7 l 60.2,0 0,-217.7 c -0.2,-75.8 -29.8,-147 -83.3,-200.4 -53.5,-53.5 -124.8,-83 -200.5,-83 -75.8,0 -147,29.5 -200.6,83 -53.6,53.5 -83.3,124.7 -83.5,200.4 l 0,217.5 60.2,0 c 15.6,26.9 36.5,41.7 59.1,41.7 l 19.2,0 c 33.1,0 60,-26.9 60,-60 l 0,-192.5 c 0,-33.1 -26.9,-60 -60,-60 l -19.2,0 c -20.6,0 -39.7,12.2 -54.8,34.8 1.5,-18 5.2,-35.5 10.9,-52.4 6.1,1.7 12.4,2.5 18.8,2.5 22.7,0 44.1,-10.8 57.5,-28.8 9.7,-13.3 21.5,-25 35,-34.9 13.3,-9.7 22.3,-23.4 26.5,-38.5 10.5,6 22.6,9.4 35.1,9.4 3.6,0 7.3,-0.3 10.9,-0.9 8.1,-1.3 16.4,-1.9 24.7,-1.9 l 0,0 c 8.3,0 16.5,0.6 24.6,1.9 3.6,0.6 7.2,0.8 10.8,0.8 12.6,0 24.7,-3.4 35.3,-9.4 4.1,15.2 13.2,29 26.6,38.6 13.4,9.8 25.2,21.5 34.9,34.8 13.3,18.1 34.8,28.9 57.4,28.9 6.5,0 12.8,-0.9 19,-2.5 5.9,17.1 9.6,34.8 11.1,52.7 -14.7,-21.9 -33.7,-34.9 -54.7,-34.9 z"
         class="st0"
         inkscape:connector-curvature="0"
         style="fill:#000000"
         sodipodi:nodetypes="sssccccccsscccssssssccscccsccccscccsccss" /><path
         class="st1"
         d="m 418.1,640.5 30,0 33.7,0 3.1,0 c 6.5,9.8 13.9,18.1 21.9,24.6 13.8,11.2 29.5,17.1 45.6,17.1 l 19.2,0 c 20.1,0 38.9,-7.8 53.1,-21.9 14.2,-14.2 21.9,-33 21.9,-53.1 l 0,-192.5 c 0,-20.1 -7.8,-38.9 -21.9,-53.1 -13.2,-13.2 -30.4,-20.8 -48.9,-21.8 8,-5.4 15.2,-12.2 21,-20.1 l 0.1,-0.1 0.1,-0.1 c 8.7,-12 19.4,-22.6 31.7,-31.6 11.2,-8.2 20,-18.8 25.9,-30.6 8.6,2.9 17.7,4.4 26.8,4.4 4.4,0 8.8,-0.3 13.2,-1 7.4,-1.2 14.9,-1.7 22.4,-1.7 7.5,0 15,0.6 22.3,1.7 l 0,0 0,0 c 4.3,0.7 8.7,1 13,1 9.3,0 18.4,-1.5 27,-4.4 6,11.9 14.8,22.5 26.1,30.7 12.2,8.8 22.8,19.4 31.6,31.5 l 0.1,0.1 0.1,0.1 c 5.8,7.9 13.1,14.8 21.3,20.3 -18.4,1 -35.6,8.7 -48.8,21.8 -14.2,14.2 -21.9,33 -21.9,53.1 l 0,192.6 c 0,20.1 7.8,38.9 21.9,53.1 14.2,14.2 33,21.9 53.1,21.9 l 0.1,0 0.1,0 19.1,-0.1 c 16.2,0 32.1,-6.1 45.9,-17.5 7.8,-6.5 15,-14.6 21.4,-24.2 l 3.1,0 33.5,0 30,0 0,-30 0,-202.7 0,0 0,0 c -0.1,-40.3 -8.1,-79.4 -23.7,-116.1 -15.1,-35.5 -36.6,-67.4 -64,-94.8 -27.4,-27.4 -59.3,-48.9 -94.9,-63.9 -36.8,-15.6 -75.9,-23.4 -116.2,-23.4 -40.3,0 -79.4,7.9 -116.3,23.4 -35.6,15 -67.5,36.5 -95,63.9 -27.4,27.4 -49,59.3 -64.1,94.8 -15.6,36.8 -23.6,75.9 -23.7,116.2 l 0,0 0,0 0,202.5 0,29.9 m 30,-30 0,-202.5 C 448.5,259.7 568.8,139.6 717.2,139.6 865.6,139.6 985.6,259.7 986,408 l 0,202.7 -33.7,0 0,-94.1 c -1.4,75.4 -32.4,135.8 -70.5,135.8 l -19.2,0.1 c -24.9,0 -45,-20.1 -45,-45 l 0,-192.6 c 0,-24.9 20.1,-45 45,-45 l 19.2,0 c 38.1,0.1 69.1,60.3 70.5,135.8 l 0,-97.7 c 0,-31.3 -6.2,-61.6 -18.2,-90.2 l -5.6,2.4 c -7.2,3 -14.7,4.4 -22,4.4 -17.5,0 -34.4,-8 -45.3,-22.7 -10.7,-14.7 -23.6,-27.5 -38.2,-38.1 -20.7,-15 -28.2,-42.4 -19,-66.1 -9.1,20.7 -29.5,34 -51.7,34 -2.8,0 -5.6,-0.2 -8.4,-0.6 -8.9,-1.4 -17.9,-2.1 -27,-2.1 -9.1,0 -18.1,0.7 -27,2.1 -2.9,0.4 -5.7,0.7 -8.5,0.7 -22.3,0 -42.7,-13.6 -51.7,-34.6 9.5,23.9 2,51.4 -18.8,66.6 -14.6,10.7 -27.6,23.6 -38.2,38.1 -10.8,14.6 -27.9,22.7 -45.4,22.7 -7.4,0 -14.8,-1.4 -21.9,-4.4 l -5.6,-2.4 c -11.9,28.5 -17.9,58.7 -18,90 l 0,95.3 c 2,-74.3 32.9,-133.4 70.6,-133.4 l 19.2,0 c 24.9,0 45,20.1 45,45 l 0,192.5 c 0,24.9 -20.1,45 -45,45 l -19.2,0 c -37.8,0 -68.5,-59 -70.6,-133.3 l 0,91.6 -33.7,0 z m 485.1,-295 c 0.1,0.2 0.1,0.4 0.2,0.5 -0.1,-0.1 -0.1,-0.3 -0.2,-0.5 z m 0.2,0.5 c 0.1,0.3 0.3,0.6 0.4,1 0.1,0.3 0.2,0.5 0.3,0.8 l 0.1,0 c -0.2,-0.5 -0.5,-1.1 -0.8,-1.8 z"
         id="path2999"
         inkscape:connector-curvature="0"
         style="fill:#bf741f"
         sodipodi:nodetypes="cccccsscsscccccccscscccscccccccsscscccccccccccccscsccccccccccsccccccsssccsccscccscscscccsccccsssssscccccccccccccc" /><path
         id="path3007"
         d="M 956.7,-17 1195.4,396 956.7,809 479.3,809 240.6,396 479.3,-17 956.7,-17 M 974,-47 462,-47 206,396 462,839 974,839 1230,396 974,-47 z"
         class="st1"
         inkscape:connector-curvature="0"
         style="fill:#bf741f"
         sodipodi:nodetypes="ccccccccccccccc" /></g></g></svg>