<?xml version="1.0" encoding="utf-8"?>
<!-- Generator: Adobe Illustrator 19.0.0, SVG Export Plug-In . SVG Version: 6.00 Build 0)  -->
<svg version="1.1" id="Layer_1" xmlns="http://www.w3.org/2000/svg" xmlns:xlink="http://www.w3.org/1999/xlink" x="0px" y="0px"
	 width="1024px" height="1024px" viewBox="206 -116 1024 1024" style="enable-background:new 206 -116 1024 1024;"
	 xml:space="preserve">
<style type="text/css">
	.st0{fill:url(#SVGID_1_);}
	.st1{fill:#BF741F;}
</style>
<g id="XMLID_10_">
	
		<linearGradient id="SVGID_1_" gradientUnits="userSpaceOnUse" x1="718.0001" y1="-32" x2="718.0001" y2="824" gradientTransform="matrix(1 0 0 -1 0 792)">
		<stop  offset="0" style="stop-color:#FFB815"/>
		<stop  offset="1" style="stop-color:#ED8000"/>
	</linearGradient>
	<path class="st0" d="M470.7,824L223.3,396L470.7-32h494.7l247.3,428L965.3,824H470.7z M810.7,169c-19.7,0-35.7,16-35.7,35.7v382.6
		c0,19.7,16,35.7,35.7,35.7h99.6c19.7,0,35.7-16,35.7-35.7V204.7c0-19.7-16-35.7-35.7-35.7H810.7z M525.7,169
		c-19.7,0-35.7,16-35.7,35.7v382.6c0,19.7,16,35.7,35.7,35.7h99.6c19.7,0,35.7-16,35.7-35.7V204.7c0-19.7-16-35.7-35.7-35.7H525.7z"
		/>
	<path class="st1" d="M956.7-17l238.7,413L956.7,809H479.3L240.6,396L479.3-17H956.7 M810.7,638h99.6c28,0,50.7-22.7,50.7-50.7
		V204.7c0-28-22.7-50.7-50.7-50.7h-99.6c-28,0-50.7,22.7-50.7,50.7v382.6C760,615.3,782.7,638,810.7,638 M525.7,638h99.6
		c28,0,50.7-22.7,50.7-50.7V204.7c0-28-22.7-50.7-50.7-50.7h-99.6c-28,0-50.7,22.7-50.7,50.7v382.6C475,615.3,497.7,638,525.7,638
		 M974-47H462L206,396l256,443h512l256-443L974-47L974-47z M810.7,608c-11.4,0-20.7-9.3-20.7-20.7V204.7c0-11.4,9.3-20.7,20.7-20.7
		h99.6c11.4,0,20.7,9.3,20.7,20.7v382.6c0,11.4-9.3,20.7-20.7,20.7H810.7L810.7,608z M525.7,608c-11.4,0-20.7-9.3-20.7-20.7V204.7
		c0-11.4,9.3-20.7,20.7-20.7h99.6c11.4,0,20.7,9.3,20.7,20.7v382.6c0,11.4-9.3,20.7-20.7,20.7H525.7L525.7,608z"/>
</g>
</svg>
