<?xml version="1.0" encoding="utf-8"?>
<!-- Generator: Adobe Illustrator 19.0.0, SVG Export Plug-In . SVG Version: 6.00 Build 0)  -->
<svg version="1.1" id="Layer_1" xmlns="http://www.w3.org/2000/svg" xmlns:xlink="http://www.w3.org/1999/xlink" x="0px" y="0px"
	 width="1024px" height="1024px" viewBox="206 -116 1024 1024" style="enable-background:new 206 -116 1024 1024;"
	 xml:space="preserve">
<style type="text/css">
	.st0{fill:url(#SVGID_1_);}
	.st1{fill:#BF741F;}
</style>
<g id="XMLID_9_">
	
		<linearGradient id="SVGID_1_" gradientUnits="userSpaceOnUse" x1="718" y1="-32" x2="718" y2="824" gradientTransform="matrix(1 0 0 -1 0 792)">
		<stop  offset="0" style="stop-color:#FFB815"/>
		<stop  offset="1" style="stop-color:#ED8000"/>
	</linearGradient>
	<path class="st0" d="M470.7,824L223.3,396L470.7-32h494.7l247.3,428L965.3,824H470.7z M601.2,168.3c-21.6,0-39.2,17.6-39.2,39.3
		v375.8c0,21.7,17.6,39.3,39.2,39.3c7.3,0,14.4-2.1,20.7-6c57.5-35.9,112.1-70,164.9-103c46.7-29.2,93.4-58.4,142.2-88.9
		c11.7-7.3,18.7-19.9,18.5-33.8c-0.1-13.8-7.3-26.2-19.1-33.2c-51-30.5-98.9-59.2-145.9-87.4c-54.8-32.8-106.6-63.9-161.2-96.5
		C615.2,170.2,608.2,168.3,601.2,168.3z"/>
	<path class="st1" d="M956.7-17l238.7,413L956.7,809H479.3L240.6,396L479.3-17H956.7 M601.2,637.7c10.1,0,20-2.9,28.7-8.3
		c57.4-35.8,111.9-69.9,164.7-102.9c46-28.7,93.5-58.5,142.4-89c16.2-10.1,25.8-27.6,25.6-46.7c-0.2-19-10.1-36.2-26.4-45.9
		c-51-30.5-99.2-59.4-145.9-87.3c-54.9-32.9-106.7-63.9-161.3-96.6c-8.5-5.1-18.1-7.8-27.9-7.8c-14.1,0-27.4,5.4-37.6,15.2
		c-10.7,10.3-16.5,24.2-16.5,39.1v375.8c0,15,5.9,28.9,16.6,39.1C573.8,632.3,587.1,637.7,601.2,637.7 M974-47H462L206,396l256,443
		h512l256-443L974-47L974-47z M601.2,607.7c-12.6,0-24.2-10.1-24.2-24.3V207.6c0-14.2,11.5-24.3,24.2-24.3c4.2,0,8.4,1.1,12.4,3.5
		c102.2,61.1,197.7,118.4,307.2,183.9c15.6,9.3,15.7,31.8,0.3,41.4C816.2,477.6,721.5,536.9,614,604
		C609.9,606.6,605.5,607.7,601.2,607.7L601.2,607.7z"/>
</g>
</svg>
