<?xml version="1.0" encoding="utf-8"?>
<!-- Generator: Adobe Illustrator 19.0.0, SVG Export Plug-In . SVG Version: 6.00 Build 0)  -->
<svg version="1.1" id="Layer_1" xmlns="http://www.w3.org/2000/svg" xmlns:xlink="http://www.w3.org/1999/xlink" x="0px" y="0px"
	 width="1024px" height="1024px" viewBox="206 -116 1024 1024" style="enable-background:new 206 -116 1024 1024;"
	 xml:space="preserve">
<style type="text/css">
	.st0{fill:url(#XMLID_3_);}
	.st1{fill:#FFFFFF;enable-background:new    ;}
</style>
<g id="XMLID_1_">
	<g id="XMLID_24_">
		
			<linearGradient id="XMLID_3_" gradientUnits="userSpaceOnUse" x1="718" y1="-54.0107" x2="718" y2="847.4728" gradientTransform="matrix(1 0 0 -1 0 792)">
			<stop  offset="0" style="stop-color:#FFB815"/>
			<stop  offset="1" style="stop-color:#ED8000"/>
		</linearGradient>
		<path id="XMLID_31_" class="st0" d="M501.4,846c-24,0-53.5-17.1-65.5-38L219.2,433.1c-12-20.7-12-54.9,0-75.6l216.6-375
			c12-20.7,41.5-38,65.5-38h433.3c24,0,53.5,17.1,65.5,38l216.6,374.9c12,20.7,12,54.9,0,75.6l-216.6,375c-12,20.7-41.5,38-65.5,38
			H501.4z"/>
	</g>
</g>
<g>
	<path class="st1" d="M718,92.3c-168.8,0-305.7,136.6-306.2,305.4v230.6h38.4V524.1c2.3,84.6,37.3,151.7,80.3,151.7V354.3
		c-42.9,0-78,67.2-80.3,151.8V397.7c0.1-35.6,7-70,20.5-102.4l6.4,2.7c27.2,11.4,59.1,2.9,76.6-20.8c12.1-16.6,26.9-31.2,43.5-43.4
		c23.7-17.3,32.2-48.6,21.4-75.8c11.5,26.9,39.6,43.1,68.5,38.6c20.3-3.2,41.1-3.2,61.4,0c28.8,4.5,56.7-11.5,68.4-38
		c-10.5,27-1.9,58.1,21.6,75.2c16.6,12.1,31.3,26.7,43.5,43.4c17.5,23.8,49.2,32.2,76.6,20.8l6.5-2.7c-1.6-3.9-3.4-7.8-5.2-11.6
		c1.7,3.5,3.3,7,4.8,10.6c13.8,32.7,21,67.5,21,103.5v230.6h38.4V397.7C1023.7,229,886.8,92.3,718,92.3z M958.1,279.6
		c0.6,1.3,1.3,2.6,1.9,3.9C959.4,282.2,958.7,280.9,958.1,279.6z M956,275.5c0.3,0.5,0.5,1,0.8,1.5C956.6,276.5,956.3,276,956,275.5
		z"/>
	<path class="st1" d="M905.2,354.3v321.5c44.5,0,80.4-72,80.4-160.8S949.6,354.3,905.2,354.3z"/>
	<path class="st1" d="M832.2,405.5v219.2c0,28.3,22.9,51.2,51.2,51.2h21.9V354.3h-21.9C855.1,354.3,832.2,377.2,832.2,405.5z"/>
	<path class="st1" d="M552.5,354.3h-21.9v321.5h21.9c28.3,0,51.2-22.9,51.2-51.2V405.5C603.7,377.2,580.8,354.3,552.5,354.3z"/>
</g>
</svg>
